<svg width="167" height="105" viewBox="0 0 167 105" fill="none" xmlns="http://www.w3.org/2000/svg">
<g clip-path="url(#clip0_260_11092)">
<path d="M25.4557 85.1457C25.1114 85.1232 24.7445 85.1032 24.3553 85.0806C24.0309 85.0581 23.664 85.0431 23.2548 85.0331C22.8455 85.0231 22.4238 85.0181 21.9921 85.0181C21.3458 85.0181 20.7419 85.0331 20.1804 85.0656C19.619 85.0982 19.2422 85.1257 19.0475 85.1457C19.1973 85.0381 19.327 84.9181 19.4368 84.788C19.5441 84.6804 19.6364 84.5503 19.7113 84.3977C19.7862 84.2477 19.8236 84.0851 19.8236 83.9125C19.8236 83.6098 19.8086 83.3071 19.7762 83.0044C19.7438 82.7017 19.609 82.3015 19.3719 81.8037L18.0768 78.982H5.69213C5.49749 79.4148 5.29286 79.8475 5.07826 80.2778C4.86365 80.7105 4.66402 81.1383 4.47936 81.5586C4.2972 81.9813 4.14997 82.3815 4.04266 82.7593C3.93536 83.137 3.88046 83.4672 3.88046 83.7474C3.88046 83.8774 3.91789 84.0175 3.99276 84.1701C4.06762 84.3227 4.15995 84.4628 4.26725 84.5904C4.37455 84.7204 4.47686 84.8405 4.57419 84.9481C4.67151 85.0556 4.74138 85.1207 4.7838 85.1432C4.61162 85.1207 4.27723 85.0957 3.78065 85.0631C3.28406 85.0306 2.85236 85.0156 2.48553 85.0156C2.18359 85.0156 1.88663 85.0206 1.59717 85.0306C1.3052 85.0406 1.04069 85.0581 0.803628 85.0781C0.524143 85.1007 0.254639 85.1207 -0.00488281 85.1432C0.599005 84.7755 1.11555 84.3752 1.54726 83.9425C1.97896 83.5097 2.37823 82.9169 2.74505 82.1589C3.1543 81.2934 3.61345 80.3378 4.12002 79.2897C4.62659 78.2416 5.15062 77.1559 5.68963 76.0303C6.22864 74.9071 6.77763 73.7664 7.33909 72.6107C7.90056 71.455 8.43957 70.3369 8.95612 69.2537C10.1639 66.7247 11.4041 64.1407 12.6768 61.5041C13.9494 64.1407 15.1772 66.7247 16.365 69.2537C16.8815 70.3344 17.4155 71.4525 17.967 72.6107C18.516 73.7664 19.055 74.9071 19.584 76.0303C20.1131 77.1534 20.6296 78.2416 21.1362 79.2897C21.6428 80.3378 22.1019 81.2959 22.5112 82.1589C22.8555 82.9169 23.2448 83.5047 23.6765 83.925C24.1082 84.3452 24.6996 84.7504 25.4557 85.1407V85.1457ZM11.9356 65.7241L6.21117 77.8839H17.5653L11.9381 65.7241H11.9356Z" fill="url(#paint0_linear_260_11092)"/>
<path d="M48.5832 62.222C48.3461 62.3521 48.1415 62.5022 47.9693 62.6748C47.7971 62.8474 47.6623 63.06 47.565 63.3077C47.4677 63.5578 47.3978 63.858 47.3554 64.2157C47.313 64.5734 47.2905 65.0112 47.2905 65.529V86.444L30.0498 66.0168V82.3915C30.0498 83.2345 30.207 83.8499 30.5189 84.2401C30.8308 84.6304 31.2251 84.9331 31.6992 85.1482C31.3973 85.1257 31.1053 85.1057 30.8258 85.0831C30.5888 85.0606 30.3243 85.0456 30.0323 85.0356C29.7403 85.0256 29.4758 85.0206 29.2388 85.0206C28.8944 85.0206 28.4951 85.0306 28.041 85.0531C27.5893 85.0731 27.21 85.1057 26.9081 85.1507C27.4046 84.8705 27.7914 84.5128 28.0734 84.08C28.3529 83.6473 28.4951 83.0219 28.4951 82.1989V65.3389C28.4951 64.8636 28.4727 64.4634 28.4303 64.1382C28.3878 63.813 28.3005 63.5378 28.1707 63.3102C28.041 63.0825 27.8688 62.8899 27.6542 62.7273C27.4396 62.5647 27.1576 62.3871 26.8132 62.192C27.0728 62.2145 27.3522 62.2345 27.6542 62.2571C27.9137 62.2796 28.1982 62.2946 28.5126 62.3046C28.8245 62.3146 29.1639 62.3196 29.5307 62.3196H30.4366C30.716 62.3196 30.9756 62.3096 31.2126 62.2871L32.0536 62.222C31.9014 62.3521 31.8065 62.4772 31.7616 62.5948C31.7192 62.7148 31.6967 62.8924 31.6967 63.1301C31.6967 63.4978 31.804 63.838 32.0211 64.1507C32.2358 64.4634 32.5926 64.9136 33.0892 65.4965L45.7683 80.573V65.3339C45.7683 64.8586 45.7534 64.4584 45.7209 64.1332C45.6885 63.808 45.6286 63.5328 45.5437 63.3052C45.4564 63.0775 45.3391 62.8849 45.1869 62.7223C45.0347 62.5597 44.8425 62.3921 44.6055 62.2195C44.865 62.242 45.112 62.2621 45.3491 62.2846C45.5637 62.3071 45.7808 62.3171 45.9954 62.3171H47.1932C47.4078 62.3171 47.6249 62.3071 47.8395 62.2846C48.0766 62.2646 48.3236 62.242 48.5832 62.2195V62.222Z" fill="url(#paint1_linear_260_11092)"/>
<path d="M71.8703 80.6705C71.8703 80.9957 71.8479 81.3459 71.8055 81.7236C71.763 82.1014 71.7032 82.4816 71.6283 82.8593C71.5534 83.237 71.4561 83.5898 71.3363 83.9124C71.2165 84.2376 71.0818 84.5078 70.9321 84.7229C70.7599 84.7655 70.4904 84.8355 70.1236 84.9331C69.7567 85.0306 69.3026 85.1332 68.7661 85.2407C68.2271 85.3483 67.6132 85.4459 66.922 85.5334C66.2307 85.6185 65.4771 85.6635 64.6586 85.6635C62.1557 85.6635 60.0496 85.3283 58.3353 84.6579C56.6209 83.9875 55.241 83.107 54.1954 82.0163C53.1498 80.9257 52.3937 79.6699 51.9321 78.2541C51.4679 76.8382 51.2358 75.3849 51.2358 73.894C51.2358 71.7977 51.5977 69.9817 52.3188 68.4457C53.04 66.9123 53.9733 65.6416 55.1162 64.636C56.2591 63.6304 57.5467 62.8849 58.9816 62.3996C60.4164 61.9144 61.8338 61.6692 63.2337 61.6692C64.6337 61.6692 65.9288 61.8093 67.2439 62.092C68.5589 62.3721 69.864 62.7298 71.1567 63.1626V63.7129C71.1567 63.8655 71.1616 64.0206 71.1716 64.1832C71.1816 64.3458 71.1866 64.4909 71.1866 64.621C71.1866 64.8811 71.1542 65.2864 71.0893 65.8367C71.0244 66.387 70.9371 66.9774 70.8298 67.6027C70.7 67.0624 70.5603 66.5646 70.408 66.1119C70.2783 65.7216 70.1211 65.3439 69.9389 64.9762C69.7542 64.6085 69.5546 64.3383 69.34 64.1657C69.0805 63.9931 68.7461 63.803 68.3369 63.5979C67.9276 63.3927 67.4635 63.2076 66.9469 63.0475C66.4304 62.8849 65.8689 62.7498 65.265 62.6423C64.6611 62.5347 64.0348 62.4797 63.3885 62.4797C61.9212 62.4797 60.6061 62.7223 59.4432 63.2101C58.2804 63.6979 57.2872 64.3783 56.4662 65.2538C55.6477 66.1294 55.0214 67.1825 54.5897 68.4157C54.158 69.6465 53.9434 71.0198 53.9434 72.5332C53.9434 74.0466 54.158 75.64 54.5897 77.1209C55.0214 78.6018 55.6826 79.9151 56.5785 81.0607C57.4719 82.2064 58.5998 83.1245 59.9573 83.8174C61.3148 84.5103 62.9343 84.8555 64.8083 84.8555C65.9088 84.8555 66.8396 84.7529 67.6057 84.5478C68.3718 84.3427 69.0231 84.0575 69.5621 83.6898C70.1011 83.3221 70.5428 82.8843 70.8872 82.3765C71.2315 81.8687 71.5559 81.3009 71.8579 80.6755L71.8703 80.6705Z" fill="url(#paint2_linear_260_11092)"/>
<path d="M88.4322 82.2915C88.3673 82.6792 88.3124 83.0544 88.27 83.4096C88.2275 83.7674 88.1502 84.0851 88.0429 84.3652C87.9356 84.6454 87.7834 84.868 87.5912 85.0306C87.3966 85.1932 87.1171 85.2733 86.7503 85.2733C85.9941 85.2733 85.1482 85.2633 84.2124 85.2407C83.2742 85.2182 82.3683 85.1932 81.4949 85.1607C80.6215 85.1282 79.8455 85.0956 79.1667 85.0631C78.488 85.0306 78.0188 85.0156 77.7593 85.0156C77.5222 85.0156 77.2353 85.0206 76.9009 85.0306C76.5665 85.0406 76.2496 85.0581 75.9476 85.0781L74.8472 85.1432C75.3637 84.818 75.758 84.4353 76.0275 83.9925C76.297 83.5497 76.4318 82.8518 76.4318 81.9013V65.3314C76.4318 64.8986 76.4218 64.5259 76.3993 64.2132C76.3769 63.9005 76.3294 63.6179 76.2546 63.3702C76.1797 63.1226 76.0699 62.9049 75.9302 62.7223C75.7904 62.5397 75.6008 62.3596 75.3637 62.187L76.2047 62.2521C76.4417 62.2746 76.6888 62.2896 76.9483 62.2996C77.2078 62.3096 77.4224 62.3146 77.5946 62.3146C77.939 62.3146 78.473 62.3046 79.1967 62.2821C79.9178 62.2621 80.6515 62.2395 81.3951 62.217C82.1387 62.197 82.8225 62.1745 83.4488 62.152C84.0752 62.132 84.4719 62.1195 84.6466 62.1195C84.9261 62.1195 85.1582 62.227 85.3428 62.4447C85.525 62.6623 85.6722 62.9099 85.7795 63.1901C85.8868 63.4703 85.9617 63.7479 86.0066 64.0156C86.049 64.2858 86.0715 64.4859 86.0715 64.616C85.8993 64.2708 85.6123 64.0006 85.2131 63.8055C84.8138 63.6104 84.3447 63.4703 83.8057 63.3827C83.2667 63.2977 82.6852 63.2476 82.0589 63.2376C81.4325 63.2276 80.7962 63.2226 80.1499 63.2226H79.0819V72.5932H83.7707C84.2673 72.5932 84.6641 72.5182 84.9685 72.3656C85.2705 72.2155 85.5175 72.0404 85.7122 71.8478C85.9268 71.6101 86.1014 71.35 86.2287 71.0698L86.1638 71.7827C86.1414 71.9979 86.1264 72.2205 86.1164 72.4481C86.1064 72.6758 86.1014 72.8759 86.1014 73.0485C86.1014 73.2011 86.1064 73.3837 86.1164 73.5988C86.1264 73.8139 86.1539 74.0316 86.1963 74.2467C86.2162 74.4843 86.2487 74.7445 86.2936 75.0247C86.1638 74.787 85.9817 74.5594 85.7446 74.3443C85.55 74.1717 85.2929 74.0141 84.9685 73.874C84.6441 73.7339 84.2573 73.6638 83.8032 73.6638H79.0819V84.0725C79.4063 84.0951 79.7606 84.1151 80.1499 84.1376C80.4943 84.1601 80.8985 84.1751 81.3627 84.1851C81.8268 84.1951 82.3384 84.2026 82.8998 84.2026C83.6984 84.2026 84.3821 84.1926 84.9536 84.1701C85.525 84.1501 86.0166 84.0775 86.4258 83.96C86.8351 83.8424 87.1969 83.6523 87.5089 83.3921C87.8208 83.132 88.1277 82.7668 88.4297 82.289L88.4322 82.2915Z" fill="url(#paint3_linear_260_11092)"/>
<path d="M102.274 79.017C102.274 79.9676 102.102 80.8381 101.758 81.6261C101.413 82.4166 100.944 83.0895 100.35 83.6523C99.7563 84.2151 99.0726 84.6479 98.2965 84.9506C97.5204 85.2533 96.7119 85.4033 95.871 85.4033C95.2895 85.4033 94.7755 85.3658 94.3338 85.2908C93.8921 85.2157 93.4928 85.1282 93.1385 85.0306C92.7816 84.9331 92.4747 84.848 92.2152 84.7705C91.9557 84.6954 91.7186 84.6579 91.504 84.6579C91.3967 84.6579 91.3143 84.6729 91.2619 84.7054C91.207 84.7379 91.1372 84.7755 91.0523 84.818C90.945 84.7104 90.8302 84.5653 90.7129 84.3802C90.5957 84.1976 90.5033 83.9325 90.4385 83.5848C90.396 83.3246 90.3586 83.0444 90.3262 82.7418C90.2937 82.4391 90.2713 82.1464 90.2613 81.8662C90.2513 81.5861 90.2388 81.3309 90.2288 81.1033C90.2189 80.8756 90.2139 80.7206 90.2139 80.633C90.4734 81.3459 90.7629 81.9563 91.0873 82.4641C91.4092 82.9719 91.7985 83.3821 92.2526 83.6948C92.7043 84.0075 93.2333 84.2401 93.8372 84.3927C94.4411 84.5453 95.1623 84.6204 96.0032 84.6204C96.4773 84.6204 96.9789 84.5353 97.5079 84.3602C98.037 84.1876 98.5211 83.94 98.9628 83.6148C99.4044 83.2896 99.7713 82.8793 100.063 82.3815C100.355 81.8837 100.5 81.3109 100.5 80.663C100.5 79.7124 100.258 78.8695 99.7713 78.134C99.2847 77.3986 98.6708 76.7182 97.9272 76.0903C97.1835 75.4624 96.385 74.8521 95.5341 74.2592C94.6831 73.6638 93.8846 73.0435 93.141 72.3956C92.3973 71.7477 91.781 71.0448 91.2969 70.2868C90.8103 69.5314 90.5682 68.6559 90.5682 67.6603C90.5682 66.8823 90.703 66.1419 90.9725 65.439C91.242 64.736 91.6188 64.1257 92.1054 63.6079C92.592 63.0901 93.1734 62.6723 93.8522 62.3596C94.5309 62.0469 95.292 61.8893 96.133 61.8893C96.8017 61.8893 97.3882 61.9444 97.8947 62.0519C98.4013 62.1595 98.8604 62.2896 99.2697 62.4422C99.6789 62.5948 100.051 62.7448 100.385 62.8949C100.72 63.0475 101.049 63.1651 101.371 63.2527C101.328 63.4703 101.296 63.6754 101.274 63.868C101.251 64.0406 101.236 64.2132 101.224 64.3858C101.214 64.5584 101.209 64.711 101.209 64.8386C101.209 64.9912 101.204 65.1788 101.194 65.4064C101.184 65.6341 101.179 65.8667 101.179 66.1044C101.156 66.3645 101.146 66.6547 101.146 66.9799C101.039 66.6122 100.942 66.277 100.854 65.9743L100.595 65.1963C100.507 64.9362 100.433 64.731 100.368 64.5809C100.195 64.3208 99.9509 64.0681 99.639 63.818C99.3271 63.5703 98.9702 63.3477 98.571 63.1526C98.1717 62.9575 97.75 62.8074 97.3108 62.6998C96.8691 62.5923 96.4424 62.5372 96.0332 62.5372C95.4517 62.5372 94.9277 62.6348 94.4635 62.8299C93.9994 63.025 93.6051 63.2902 93.2832 63.6254C92.9613 63.9606 92.7068 64.3433 92.5246 64.7761C92.34 65.2088 92.2501 65.6616 92.2501 66.1369C92.2501 66.8723 92.4972 67.5577 92.9938 68.1956C93.4903 68.8335 94.1092 69.4589 94.8528 70.0767C95.5965 70.6921 96.4 71.32 97.2634 71.9578C98.1268 72.5957 98.9303 73.2711 99.6739 73.984C100.418 74.697 101.036 75.4649 101.533 76.2854C102.03 77.1084 102.277 78.0164 102.277 79.0095L102.274 79.017Z" fill="url(#paint4_linear_260_11092)"/>
<path d="M112.401 63.4528H106.998C106.546 63.4528 106.162 63.4753 105.85 63.5178C105.538 63.5603 105.261 63.6579 105.024 63.8105C104.787 63.9631 104.583 64.1682 104.41 64.4258C104.238 64.686 104.066 65.0412 103.894 65.4965C103.894 65.1713 103.904 64.8161 103.926 64.4258C103.946 64.0356 104.019 63.6704 104.136 63.3227C104.253 62.9775 104.428 62.6898 104.652 62.4622C104.877 62.2345 105.186 62.122 105.573 62.122C105.853 62.122 106.302 62.132 106.916 62.1545C107.53 62.177 108.226 62.197 109.002 62.2195C109.778 62.2421 110.586 62.2621 111.427 62.2846C112.268 62.3071 113.044 62.3171 113.756 62.3171C114.424 62.3171 115.168 62.3121 115.987 62.3021C116.805 62.2921 117.594 62.2746 118.347 62.2546C119.101 62.2345 119.782 62.217 120.386 62.207C120.99 62.197 121.432 62.1895 121.711 62.1895C122.12 62.1895 122.44 62.2921 122.664 62.4972C122.891 62.7023 123.059 62.9675 123.166 63.2927C123.273 63.6179 123.343 63.9681 123.375 64.3458C123.408 64.7235 123.423 65.0862 123.423 65.4315C123.143 64.7611 122.787 64.2633 122.355 63.9406C121.923 63.6154 121.267 63.4553 120.381 63.4553H115.043V82.0338C115.043 82.9644 115.188 83.6398 115.48 84.06C115.772 84.4828 116.186 84.843 116.725 85.1457C116.336 85.1232 115.959 85.1032 115.592 85.0806C115.29 85.0581 114.966 85.0431 114.622 85.0331C114.277 85.0231 113.975 85.0181 113.716 85.0181C113.456 85.0181 113.172 85.0231 112.86 85.0331C112.548 85.0431 112.251 85.0531 111.969 85.0656C111.689 85.0756 111.435 85.0932 111.208 85.1132C110.981 85.1332 110.824 85.1457 110.739 85.1457C111.255 84.8655 111.66 84.5078 111.951 84.075C112.243 83.6423 112.388 82.9619 112.388 82.0313V63.4528H112.401Z" fill="url(#paint5_linear_260_11092)"/>
<path d="M145.779 85.2432C145.779 85.2632 145.714 85.2808 145.584 85.2908C145.455 85.3008 145.315 85.3083 145.165 85.3083C144 85.3083 142.837 85.1032 141.672 84.6929C140.506 84.2827 139.451 83.5572 138.503 82.5216C138.223 82.1964 137.894 81.7862 137.517 81.2884C137.14 80.7906 136.756 80.2628 136.369 79.6999C135.98 79.1371 135.588 78.5593 135.189 77.9664C134.789 77.3711 134.427 76.8257 134.106 76.3279C133.781 75.8301 133.507 75.4049 133.28 75.0472C133.053 74.6895 132.908 74.4593 132.843 74.3493H129.447V82.1964C129.447 83.0194 129.591 83.6498 129.883 84.0926C130.175 84.5353 130.535 84.888 130.966 85.1457C130.749 85.1032 130.39 85.0706 129.883 85.0481C129.377 85.0256 128.8 85.0156 128.154 85.0156C127.593 85.0156 127.071 85.0256 126.584 85.0481C126.1 85.0681 125.641 85.1007 125.209 85.1457C125.684 84.8855 126.065 84.5353 126.357 84.0926C126.649 83.6498 126.794 83.0169 126.794 82.1964V65.0437C126.794 64.2883 126.719 63.6929 126.567 63.2602C126.415 62.8274 126.125 62.4722 125.694 62.1895C125.953 62.232 126.317 62.2646 126.794 62.2871C127.268 62.3096 127.72 62.3196 128.152 62.3196C128.346 62.3196 128.598 62.3096 128.913 62.2871C129.225 62.2671 129.571 62.2496 129.948 62.2395C130.325 62.2295 130.714 62.212 131.114 62.192C131.513 62.172 131.895 62.1595 132.261 62.1595C133.145 62.1595 133.981 62.3046 134.769 62.5973C135.555 62.8899 136.242 63.2827 136.823 63.7805C137.405 64.2783 137.869 64.8711 138.213 65.564C138.557 66.2569 138.73 67.0024 138.73 67.8004C138.73 68.7734 138.567 69.6114 138.245 70.3118C137.921 71.0148 137.554 71.5976 137.145 72.0629C136.736 72.5282 136.336 72.8859 135.947 73.1335C135.56 73.3812 135.311 73.5288 135.204 73.5713C135.398 73.8314 135.7 74.2842 136.109 74.9321C136.519 75.58 137.01 76.3254 137.582 77.1684C138.153 78.0114 138.779 78.892 139.458 79.81C140.137 80.728 140.838 81.5761 141.559 82.354C142.281 83.132 143.004 83.7924 143.725 84.3327C144.447 84.873 145.133 85.1757 145.779 85.2407V85.2432ZM136.334 68.5458C136.334 67.6378 136.209 66.8323 135.962 66.1294C135.713 65.4264 135.381 64.8386 134.959 64.3633C134.54 63.888 134.038 63.5253 133.454 63.2777C132.873 63.03 132.247 62.9049 131.578 62.9049C131.318 62.9049 131.006 62.9275 130.639 62.97C130.273 63.0125 129.873 63.0901 129.442 63.1976V73.5413H131.835C132.416 73.5413 132.978 73.4437 133.517 73.2486C134.056 73.0535 134.535 72.7583 134.957 72.3556C135.378 71.9553 135.71 71.4425 135.96 70.8146C136.207 70.1868 136.331 69.4313 136.331 68.5458H136.334Z" fill="url(#paint6_linear_260_11092)"/>
<path d="M167 74.4118C167 76.0778 166.661 77.6012 165.982 78.9845C165.303 80.3678 164.43 81.556 163.362 82.5516C162.294 83.5472 161.099 84.3127 159.771 84.853C158.446 85.3933 157.146 85.6635 155.873 85.6635C154.104 85.6635 152.487 85.3758 151.022 84.803C149.555 84.2301 148.29 83.4147 147.222 82.354C146.154 81.2959 145.323 80.0151 144.731 78.5117C144.137 77.0108 143.843 75.3173 143.843 73.4362C143.843 71.6652 144.155 70.0542 144.781 68.6058C145.407 67.1575 146.241 65.9192 147.289 64.8936C148.335 63.868 149.537 63.0725 150.895 62.5097C152.252 61.9469 153.677 61.6667 155.164 61.6667C157.256 61.6667 159.052 62.0519 160.55 62.8174C162.047 63.5853 163.272 64.5734 164.22 65.7842C165.169 66.9949 165.87 68.3607 166.324 69.8866C166.776 71.41 167.003 72.9184 167.003 74.4093L167 74.4118ZM164.348 74.7695C164.348 73.106 164.115 71.5276 163.651 70.0367C163.187 68.5458 162.546 67.2425 161.727 66.1294C160.906 65.0162 159.938 64.1307 158.815 63.4703C157.695 62.8124 156.475 62.4822 155.159 62.4822C153.757 62.4822 152.524 62.7574 151.456 63.3077C150.388 63.858 149.487 64.611 148.756 65.5615C148.023 66.5121 147.469 67.6378 147.092 68.9335C146.715 70.2318 146.525 71.6351 146.525 73.1485C146.525 74.7495 146.772 76.2554 147.269 77.6712C147.766 79.0871 148.444 80.3253 149.308 81.3834C150.171 82.4441 151.194 83.2871 152.38 83.9125C153.565 84.5403 154.848 84.853 156.227 84.853C157.176 84.853 158.131 84.6479 159.09 84.2376C160.048 83.8274 160.916 83.207 161.692 82.374C162.468 81.541 163.105 80.4929 163.601 79.2297C164.098 77.9664 164.345 76.478 164.345 74.772L164.348 74.7695Z" fill="url(#paint7_linear_260_11092)"/>
<path d="M28.8992 97.1878C28.717 96.8977 28.4949 96.6575 28.2329 96.4599C27.9709 96.2648 27.6814 96.1147 27.367 96.0121C27.0526 95.9096 26.7207 95.8596 26.3763 95.8596C25.745 95.8596 25.206 95.9796 24.7518 96.2198C24.2977 96.4599 23.9283 96.7776 23.6414 97.1728C23.3519 97.5681 23.1398 98.0158 23.0025 98.5136C22.8653 99.0114 22.7954 99.5242 22.7954 100.05C22.7954 100.575 22.8628 101.075 23.0025 101.578C23.1398 102.081 23.3519 102.531 23.6414 102.926C23.9308 103.321 24.3002 103.639 24.7518 103.879C25.2035 104.119 25.745 104.24 26.3763 104.24C26.8205 104.24 27.2198 104.159 27.5741 103.999C27.9285 103.839 28.2354 103.622 28.4924 103.347C28.7495 103.071 28.9591 102.749 29.1188 102.378C29.2785 102.008 29.3808 101.61 29.4257 101.183H30.3315C30.2692 101.771 30.1319 102.298 29.9198 102.771C29.7077 103.241 29.4307 103.644 29.0938 103.972C28.7569 104.302 28.3602 104.555 27.9035 104.732C27.4469 104.91 26.9378 105 26.3788 105C25.6327 105 24.9789 104.865 24.4149 104.592C23.851 104.322 23.3843 103.959 23.01 103.504C22.6382 103.051 22.3587 102.526 22.1716 101.931C21.9844 101.335 21.8921 100.707 21.8921 100.05C21.8921 99.3917 21.9844 98.7638 22.1716 98.1684C22.3587 97.5731 22.6382 97.0453 23.01 96.5875C23.3818 96.1297 23.851 95.7645 24.4149 95.4943C24.9789 95.2242 25.6327 95.0866 26.3788 95.0866C26.8305 95.0866 27.2722 95.1541 27.7039 95.2867C28.1356 95.4193 28.5249 95.6194 28.8742 95.8796C29.2236 96.1422 29.518 96.4649 29.7526 96.8476C29.9872 97.2304 30.1369 97.6706 30.1993 98.1684H29.2935C29.2136 97.8032 29.0814 97.478 28.9017 97.1878H28.8992Z" fill="url(#paint8_linear_260_11092)"/>
<path d="M46.16 95.2842L49.8881 104.812H48.9174L47.7595 101.851H43.4325L42.2871 104.812H41.3289L45.1493 95.2842H46.16ZM47.4526 101.075L45.616 96.1898L43.712 101.075H47.4526Z" fill="url(#paint9_linear_260_11092)"/>
<path d="M65.624 95.2842C66.0507 95.2842 66.435 95.3443 66.7819 95.4643C67.1288 95.5844 67.4257 95.762 67.6728 95.9971C67.9223 96.2323 68.1119 96.52 68.2442 96.8577C68.3765 97.1954 68.4438 97.5781 68.4438 98.0058C68.4438 98.4336 68.3765 98.8163 68.2442 99.154C68.1119 99.4917 67.9198 99.7794 67.6728 100.015C67.4232 100.25 67.1263 100.427 66.7819 100.547C66.435 100.667 66.0507 100.727 65.624 100.727H62.3101V104.812H61.4043V95.2842H65.624ZM65.4244 99.9545C66.0532 99.9545 66.5648 99.7944 66.9566 99.4742C67.3459 99.154 67.543 98.6637 67.543 98.0058C67.543 97.3479 67.3484 96.8577 66.9566 96.5375C66.5648 96.2173 66.0557 96.0572 65.4244 96.0572H62.3101V99.9545H65.4244Z" fill="url(#paint10_linear_260_11092)"/>
<path d="M81.4124 95.2842V104.812H80.5066V95.2842H81.4124Z" fill="url(#paint11_linear_260_11092)"/>
<path d="M100.557 95.2842V96.0572H97.2434V104.812H96.3376V96.0572H93.0361V95.2842H100.557Z" fill="url(#paint12_linear_260_11092)"/>
<path d="M114.988 95.2842L118.716 104.812H117.746L116.588 101.851H112.261L111.115 104.812H110.157L113.977 95.2842H114.988ZM116.278 101.075L114.442 96.1898L112.538 101.075H116.278Z" fill="url(#paint13_linear_260_11092)"/>
<path d="M131.136 95.2842V104.039H136.461V104.812H130.23V95.2842H131.136Z" fill="url(#paint14_linear_260_11092)"/>
<path d="M66.4925 32.707C66.4925 32.707 66.495 32.707 66.4975 32.707C72.4091 32.707 80.075 33.7051 82.9696 36.4792C84.4419 34.8482 86.2611 30.243 87.2767 27.679C87.4739 27.1787 87.6535 26.7234 87.8107 26.3432C85.0358 28.7521 79.1492 31.969 74.0511 29.2299C72.1371 28.2018 70.7222 26.9435 69.3148 25.0174C68.7209 24.2069 66.9791 21.6154 66.5249 20.0794C66.505 20.0794 66.4875 20.0794 66.4725 20.0794C66.0184 21.6104 64.2791 24.2044 63.6852 25.0174C62.2777 26.9435 60.8629 28.2018 58.9464 29.2299C53.8607 31.9615 47.9841 28.7621 45.1892 26.3457C45.3464 26.7284 45.5236 27.1812 45.7207 27.6815C46.7339 30.2455 48.5555 34.8507 50.0253 36.4817C52.92 33.7076 60.5834 32.7095 66.49 32.7095L66.4925 32.707Z" fill="url(#paint15_linear_260_11092)"/>
<path d="M119.654 40.9469C118.918 42.3902 118.022 43.5784 116.972 44.5115C115.919 45.4445 114.636 46.145 113.119 46.6102C111.604 47.0755 109.75 47.3107 107.562 47.3107C104.068 47.3107 101.049 46.6102 98.5009 45.2119C95.9531 43.8136 93.8595 41.9475 92.2175 39.6136C90.5755 37.2822 89.3653 34.6156 88.5867 31.6163C88.3197 30.5907 88.1001 29.5526 87.9229 28.5045C86.7451 31.4787 84.9908 35.7913 83.4187 37.3397C84.2372 38.9532 85.2753 40.4441 86.533 41.8099C88.5942 44.0537 91.3217 45.8648 94.7104 47.2406C98.0992 48.6164 102.276 49.3068 107.245 49.3068C110.149 49.3068 112.505 49.1067 114.317 48.7065C116.126 48.3063 117.261 47.9961 117.726 47.7734C117.893 47.6859 118.187 47.5958 118.609 47.5058L119.809 47.0405C119.976 46.6853 120.114 46.3301 120.218 45.9749C120.323 45.6197 120.418 45.2644 120.503 44.9092C120.797 43.7535 121.072 42.4102 121.324 40.8768C121.576 39.3434 121.743 37.6449 121.828 35.7788C121.112 37.7775 120.386 39.501 119.649 40.9419L119.654 40.9469Z" fill="url(#paint16_linear_260_11092)"/>
<path d="M87.3766 25.4852C87.4265 25.4401 87.4814 25.4026 87.5413 25.3726C87.4615 24.367 87.4215 23.3489 87.4215 22.3233C87.4215 19.259 87.8108 16.4823 88.5894 13.9933C89.368 11.5068 90.4934 9.37308 91.9682 7.59702C93.4405 5.82097 95.2621 4.44264 97.4306 3.46456C99.5991 2.48898 102.05 1.99869 104.787 1.99869C105.965 1.99869 107.123 2.11126 108.261 2.33139C109.396 2.55402 110.449 2.84169 111.417 3.1969C112.386 3.55211 113.249 3.94235 114.005 4.3626C114.764 4.78535 115.395 5.17308 115.899 5.52829C116.236 5.79595 116.593 6.40631 116.972 7.36188C117.351 8.31745 117.688 9.30554 117.983 10.3261C118.32 11.5244 118.657 12.8351 118.993 14.2585C119.33 12.1272 119.572 10.3161 119.72 8.82775C119.867 7.33937 119.942 6.41882 119.942 6.06111C119.942 5.79345 119.932 5.50578 119.909 5.19559C119.887 4.88541 119.877 4.57272 119.877 4.26254V3.1969L119.245 2.92924C119.033 2.84169 118.844 2.76164 118.676 2.69661C118.507 2.62906 118.317 2.55402 118.108 2.46397C116.887 2.10876 115.729 1.77606 114.634 1.46337C113.538 1.15319 112.455 0.885527 111.382 0.662895C110.309 0.440262 109.204 0.275164 108.069 0.162597C106.933 0.0525313 105.733 -0.00500298 104.47 -0.00500298C101.65 -0.00500298 98.828 0.495295 96.0082 1.49339C93.1884 2.49398 90.6506 4.0249 88.3997 6.09113C86.1464 8.15736 84.3173 10.7664 82.9074 13.9208C81.4975 17.0752 80.7913 20.8074 80.7913 25.1149C80.7913 26.4032 80.8686 27.679 81.0258 28.9397C83.7758 28.2043 86.1589 26.5633 87.3766 25.4802V25.4852Z" fill="url(#paint17_linear_260_11092)"/>
<path d="M75.1514 35.8363C71.1189 36.5668 63.2084 36.8269 57.5339 35.9264L56.8601 38.2077C60.0592 38.7256 63.6002 38.8856 66.1829 38.8856C67.6228 38.8856 71.9723 38.7306 75.8277 38.1202L75.2687 36.2291L75.1514 35.8363Z" fill="url(#paint18_linear_260_11092)"/>
<path d="M51.288 36.6518L48.6504 43.4158L51.6823 48.5064L57.1123 34.5105C54.6718 35.0083 52.6181 35.7213 51.2905 36.6518H51.288Z" fill="url(#paint19_linear_260_11092)"/>
<path d="M75.6257 34.458L81.0333 48.5064L84.0652 43.4158L81.3951 36.4417C80.0176 35.5812 77.9964 34.9183 75.6282 34.4555L75.6257 34.458Z" fill="url(#paint20_linear_260_11092)"/>
<path d="M60.9777 26.6884C61.065 26.6083 61.1524 26.5283 61.2372 26.4482L66.5025 12.9027L71.7429 26.4307C71.8352 26.5183 71.9275 26.6058 72.0198 26.6884C72.731 27.3288 73.5196 27.8791 74.4604 28.3819C75.5708 28.9797 76.7237 29.2599 77.8666 29.3149L66.5 0L55.116 29.3149C56.2639 29.2624 57.4192 28.9797 58.5347 28.3819C59.4729 27.8766 60.264 27.3288 60.9752 26.6884H60.9777Z" fill="url(#paint21_linear_260_11092)"/>
</g>
<defs>
<linearGradient id="paint0_linear_260_11092" x1="-36.7048" y1="58.1496" x2="142.991" y2="121.198" gradientUnits="userSpaceOnUse">
<stop stop-color="#BE923A"/>
<stop offset="0.12" stop-color="#A77B34"/>
<stop offset="0.26" stop-color="#F1D97E"/>
<stop offset="0.97" stop-color="#A77B34"/>
</linearGradient>
<linearGradient id="paint1_linear_260_11092" x1="-33.3585" y1="48.6139" x2="146.337" y2="111.66" gradientUnits="userSpaceOnUse">
<stop stop-color="#BE923A"/>
<stop offset="0.12" stop-color="#A77B34"/>
<stop offset="0.26" stop-color="#F1D97E"/>
<stop offset="0.97" stop-color="#A77B34"/>
</linearGradient>
<linearGradient id="paint2_linear_260_11092" x1="-30.4587" y1="40.3465" x2="149.237" y2="103.395" gradientUnits="userSpaceOnUse">
<stop stop-color="#BE923A"/>
<stop offset="0.12" stop-color="#A77B34"/>
<stop offset="0.26" stop-color="#F1D97E"/>
<stop offset="0.97" stop-color="#A77B34"/>
</linearGradient>
<linearGradient id="paint3_linear_260_11092" x1="-28.7122" y1="35.366" x2="150.983" y2="98.4148" gradientUnits="userSpaceOnUse">
<stop stop-color="#BE923A"/>
<stop offset="0.12" stop-color="#A77B34"/>
<stop offset="0.26" stop-color="#F1D97E"/>
<stop offset="0.97" stop-color="#A77B34"/>
</linearGradient>
<linearGradient id="paint4_linear_260_11092" x1="-27.0228" y1="30.5557" x2="152.673" y2="93.6045" gradientUnits="userSpaceOnUse">
<stop stop-color="#BE923A"/>
<stop offset="0.12" stop-color="#A77B34"/>
<stop offset="0.26" stop-color="#F1D97E"/>
<stop offset="0.97" stop-color="#A77B34"/>
</linearGradient>
<linearGradient id="paint5_linear_260_11092" x1="-24.6945" y1="23.9217" x2="154.998" y2="86.968" gradientUnits="userSpaceOnUse">
<stop stop-color="#BE923A"/>
<stop offset="0.12" stop-color="#A77B34"/>
<stop offset="0.26" stop-color="#F1D97E"/>
<stop offset="0.97" stop-color="#A77B34"/>
</linearGradient>
<linearGradient id="paint6_linear_260_11092" x1="-23.2621" y1="19.8368" x2="156.433" y2="82.8856" gradientUnits="userSpaceOnUse">
<stop stop-color="#BE923A"/>
<stop offset="0.12" stop-color="#A77B34"/>
<stop offset="0.26" stop-color="#F1D97E"/>
<stop offset="0.97" stop-color="#A77B34"/>
</linearGradient>
<linearGradient id="paint7_linear_260_11092" x1="-20.3923" y1="11.6594" x2="159.303" y2="74.7057" gradientUnits="userSpaceOnUse">
<stop stop-color="#BE923A"/>
<stop offset="0.12" stop-color="#A77B34"/>
<stop offset="0.26" stop-color="#F1D97E"/>
<stop offset="0.97" stop-color="#A77B34"/>
</linearGradient>
<linearGradient id="paint8_linear_260_11092" x1="-42.8462" y1="75.655" x2="136.849" y2="138.704" gradientUnits="userSpaceOnUse">
<stop stop-color="#BE923A"/>
<stop offset="0.12" stop-color="#A77B34"/>
<stop offset="0.26" stop-color="#F1D97E"/>
<stop offset="0.97" stop-color="#A77B34"/>
</linearGradient>
<linearGradient id="paint9_linear_260_11092" x1="-40.9322" y1="70.1968" x2="138.763" y2="133.243" gradientUnits="userSpaceOnUse">
<stop stop-color="#BE923A"/>
<stop offset="0.12" stop-color="#A77B34"/>
<stop offset="0.26" stop-color="#F1D97E"/>
<stop offset="0.97" stop-color="#A77B34"/>
</linearGradient>
<linearGradient id="paint10_linear_260_11092" x1="-38.7188" y1="63.8905" x2="140.977" y2="126.939" gradientUnits="userSpaceOnUse">
<stop stop-color="#BE923A"/>
<stop offset="0.12" stop-color="#A77B34"/>
<stop offset="0.26" stop-color="#F1D97E"/>
<stop offset="0.97" stop-color="#A77B34"/>
</linearGradient>
<linearGradient id="paint11_linear_260_11092" x1="-36.835" y1="58.5198" x2="142.861" y2="121.566" gradientUnits="userSpaceOnUse">
<stop stop-color="#BE923A"/>
<stop offset="0.12" stop-color="#A77B34"/>
<stop offset="0.26" stop-color="#F1D97E"/>
<stop offset="0.97" stop-color="#A77B34"/>
</linearGradient>
<linearGradient id="paint12_linear_260_11092" x1="-34.9083" y1="53.0316" x2="144.785" y2="116.08" gradientUnits="userSpaceOnUse">
<stop stop-color="#BE923A"/>
<stop offset="0.12" stop-color="#A77B34"/>
<stop offset="0.26" stop-color="#F1D97E"/>
<stop offset="0.97" stop-color="#A77B34"/>
</linearGradient>
<linearGradient id="paint13_linear_260_11092" x1="-33.3537" y1="48.6014" x2="146.342" y2="111.648" gradientUnits="userSpaceOnUse">
<stop stop-color="#BE923A"/>
<stop offset="0.12" stop-color="#A77B34"/>
<stop offset="0.26" stop-color="#F1D97E"/>
<stop offset="0.97" stop-color="#A77B34"/>
</linearGradient>
<linearGradient id="paint14_linear_260_11092" x1="-31.3596" y1="42.9181" x2="148.336" y2="105.964" gradientUnits="userSpaceOnUse">
<stop stop-color="#BE923A"/>
<stop offset="0.12" stop-color="#A77B34"/>
<stop offset="0.26" stop-color="#F1D97E"/>
<stop offset="0.97" stop-color="#A77B34"/>
</linearGradient>
<linearGradient id="paint15_linear_260_11092" x1="25.9696" y1="3.65967" x2="102.281" y2="52.7273" gradientUnits="userSpaceOnUse">
<stop stop-color="#BE923A"/>
<stop offset="0.12" stop-color="#A77B34"/>
<stop offset="0.26" stop-color="#F1D97E"/>
<stop offset="0.97" stop-color="#A77B34"/>
</linearGradient>
<linearGradient id="paint16_linear_260_11092" x1="32.2479" y1="-7.31936" x2="109.104" y2="42.0972" gradientUnits="userSpaceOnUse">
<stop stop-color="#BE923A"/>
<stop offset="0.12" stop-color="#A77B34"/>
<stop offset="0.26" stop-color="#F1D97E"/>
<stop offset="0.97" stop-color="#A77B34"/>
</linearGradient>
<linearGradient id="paint17_linear_260_11092" x1="41.848" y1="-21.7905" x2="117.897" y2="27.1051" gradientUnits="userSpaceOnUse">
<stop stop-color="#BE923A"/>
<stop offset="0.12" stop-color="#A77B34"/>
<stop offset="0.26" stop-color="#F1D97E"/>
<stop offset="0.97" stop-color="#A77B34"/>
</linearGradient>
<linearGradient id="paint18_linear_260_11092" x1="22.8103" y1="9.11292" x2="98.8914" y2="58.0284" gradientUnits="userSpaceOnUse">
<stop stop-color="#BE923A"/>
<stop offset="0.12" stop-color="#A77B34"/>
<stop offset="0.26" stop-color="#F1D97E"/>
<stop offset="0.97" stop-color="#A77B34"/>
</linearGradient>
<linearGradient id="paint19_linear_260_11092" x1="15.8857" y1="16.6274" x2="95.4904" y2="67.8089" gradientUnits="userSpaceOnUse">
<stop stop-color="#BE923A"/>
<stop offset="0.12" stop-color="#A77B34"/>
<stop offset="0.26" stop-color="#F1D97E"/>
<stop offset="0.97" stop-color="#A77B34"/>
</linearGradient>
<linearGradient id="paint20_linear_260_11092" x1="23.317" y1="5.06552" x2="101.58" y2="55.387" gradientUnits="userSpaceOnUse">
<stop stop-color="#BE923A"/>
<stop offset="0.12" stop-color="#A77B34"/>
<stop offset="0.26" stop-color="#F1D97E"/>
<stop offset="0.97" stop-color="#A77B34"/>
</linearGradient>
<linearGradient id="paint21_linear_260_11092" x1="29.8724" y1="-5.33067" x2="108.128" y2="44.9833" gradientUnits="userSpaceOnUse">
<stop stop-color="#BE923A"/>
<stop offset="0.12" stop-color="#A77B34"/>
<stop offset="0.26" stop-color="#F1D97E"/>
<stop offset="0.97" stop-color="#A77B34"/>
</linearGradient>
<clipPath id="clip0_260_11092">
<rect width="167" height="105" fill="white"/>
</clipPath>
</defs>
</svg>
